<svg width="100" height="100" viewBox="0 0 100 100" fill="none" xmlns="http://www.w3.org/2000/svg">
<g clip-path="url(#clip0_302_23)">
<path d="M50 100C77.6142 100 100 77.6147 100 50.0005C100 22.3863 77.6142 0.000488281 50 0.000488281C22.3858 0.000488281 0 22.3863 0 50.0005C0 77.6147 22.3858 100 50 100Z" fill="#239FDB"/>
<path d="M57.1964 99.4152C58.1116 99.302 59.0234 99.1635 59.931 98.9998C61.5659 98.6707 63.1833 98.2599 64.7771 97.7691C66.3688 97.2771 67.9348 96.7059 69.4694 96.0575C71.0049 95.4061 72.5068 94.6783 73.9694 93.8768C75.4327 93.0766 76.855 92.2037 78.231 91.2614C79.6074 90.3219 80.936 89.3143 82.2118 88.2422C83.487 87.168 84.7078 86.0306 85.8694 84.8345C87.0314 83.6377 88.1328 82.3836 89.1694 81.0768C90.2045 79.7709 91.1737 78.4141 92.0733 77.0114C92.9745 75.6089 93.805 74.1622 94.5618 72.6768C95.318 71.1925 95.9996 69.6714 96.6041 68.1191C97.2059 66.5642 97.7297 64.9801 98.1733 63.3729C98.5495 61.9795 98.8652 60.5705 99.1194 59.1498L76.8694 36.8998L76.2617 37.3806L73.531 34.646H26.5079L49.4194 57.5652C49.2123 57.4959 49.0185 57.3919 48.8464 57.2575L23.1387 36.8845V65.3537L57.1964 99.4152Z" fill="#0B5ECD"/>
<path d="M26.5078 34.646L50.0386 53.2883L73.5348 34.646H26.5078ZM23.1348 36.8845V65.3537H76.8694V36.8998L51.2309 57.2575C50.8914 57.5258 50.4713 57.6718 50.0386 57.6718C49.6059 57.6718 49.1858 57.5258 48.8463 57.2575L23.1386 36.8845H23.1348Z" fill="white"/>
</g>
<defs>
<clipPath id="clip0_302_23">
<rect width="100" height="100" fill="white"/>
</clipPath>
</defs>
</svg>
