<svg width="50" height="50" viewBox="0 0 50 50" fill="none" xmlns="http://www.w3.org/2000/svg">
<g clip-path="url(#clip0_302_23)">
<path d="M25 50C38.8071 50 50 38.8071 50 25C50 11.1929 38.8071 0 25 0C11.1929 0 0 11.1929 0 25C0 38.8071 11.1929 50 25 50Z" fill="#239FDB"/>
<path d="M28.5982 49.7074C29.0558 49.6508 29.5117 49.5815 29.9655 49.4997C30.7829 49.3351 31.5916 49.1297 32.3886 48.8843C33.1844 48.6383 33.9674 48.3527 34.7347 48.0285C35.5024 47.7028 36.2534 47.3389 36.9847 46.9381C37.7163 46.5381 38.4275 46.1016 39.1155 45.6304C39.8037 45.1607 40.468 44.6569 41.1059 44.1208C41.7435 43.5837 42.3539 43.0151 42.9347 42.417C43.5157 41.8186 44.0664 41.1916 44.5847 40.5381C45.1023 39.8852 45.5868 39.2068 46.0366 38.5054C46.4873 37.8042 46.9025 37.0809 47.2809 36.3381C47.659 35.596 47.9998 34.8354 48.302 34.0593C48.603 33.2818 48.8648 32.4898 49.0866 31.6862C49.2747 30.9895 49.4326 30.285 49.5597 29.5747L38.4347 18.4497L38.1309 18.6901L36.7655 17.3228H13.254L24.7097 28.7824C24.6062 28.7477 24.5093 28.6957 24.4232 28.6285L11.5693 18.442V32.6766L28.5982 49.7074Z" fill="#0B5ECD"/>
<path d="M13.2539 17.3228L25.0193 26.6439L36.7674 17.3228H13.2539ZM11.5674 18.442V32.6766H38.4347V18.4497L25.6155 28.6285C25.4457 28.7627 25.2357 28.8356 25.0193 28.8356C24.8029 28.8356 24.5929 28.7627 24.4232 28.6285L11.5693 18.442H11.5674Z" fill="white"/>
</g>
<defs>
<clipPath id="clip0_302_23">
<rect width="50" height="50" fill="white"/>
</clipPath>
</defs>
</svg>
